<svg id="svg" version="1.1" xmlns="http://www.w3.org/2000/svg" xmlns:xlink="http://www.w3.org/1999/xlink" width="400" height="400" viewBox="0, 0, 400,400"><g id="svgg"><path id="path0" d="M198.105 24.567 C 196.645 26.056,189.438 32.676,188.000 33.849 C 187.230 34.478,186.382 35.284,186.115 35.642 C 185.849 35.999,183.599 38.095,181.115 40.299 C 176.390 44.494,174.442 46.293,168.762 51.717 C 166.870 53.523,163.390 56.800,161.027 59.000 C 155.887 63.787,148.611 70.594,144.176 74.767 C 142.402 76.435,139.081 79.510,136.794 81.600 C 134.508 83.690,131.722 86.300,130.604 87.400 C 129.486 88.500,127.148 90.660,125.408 92.200 C 123.667 93.740,121.166 96.117,119.850 97.481 C 118.533 98.846,116.948 100.173,116.328 100.430 C 115.708 100.687,115.200 101.025,115.200 101.180 C 115.200 101.552,110.127 106.800,109.768 106.800 C 109.616 106.800,109.092 107.205,108.604 107.700 C 105.901 110.440,94.591 121.066,93.860 121.552 C 93.387 121.867,91.110 123.941,88.800 126.162 C 86.490 128.384,83.970 130.776,83.200 131.478 C 82.430 132.181,81.601 132.991,81.357 133.278 C 81.114 133.565,79.854 134.761,78.557 135.935 C 74.074 139.995,67.855 145.811,64.962 148.648 C 63.365 150.214,61.550 151.890,60.929 152.371 C 60.308 152.852,58.343 154.630,56.561 156.323 C 54.780 158.015,51.450 161.110,49.161 163.199 C 46.873 165.289,43.290 168.639,41.200 170.644 C 37.605 174.093,35.614 175.955,24.782 186.000 C 10.905 198.869,10.173 200.149,13.432 205.850 C 15.828 210.042,22.125 210.397,26.274 206.572 C 27.772 205.191,31.325 201.910,36.151 197.451 C 38.324 195.443,41.474 192.438,43.151 190.773 C 44.828 189.107,46.491 187.577,46.846 187.373 C 47.201 187.168,49.411 185.200,51.756 183.000 C 54.101 180.800,56.375 178.837,56.810 178.639 C 57.244 178.440,57.600 178.138,57.600 177.967 C 57.600 177.797,57.851 177.419,58.158 177.129 C 58.465 176.838,60.648 174.800,63.010 172.600 C 65.371 170.400,67.595 168.287,67.952 167.905 C 68.308 167.523,69.226 166.623,69.991 165.905 C 70.756 165.187,73.096 162.990,75.191 161.021 C 86.679 150.228,93.162 144.241,95.449 142.316 C 96.309 141.592,98.300 139.740,99.874 138.200 C 101.449 136.660,104.678 133.600,107.051 131.400 C 114.339 124.642,122.503 117.009,131.000 109.007 C 137.219 103.151,148.997 92.194,149.595 91.709 C 150.602 90.891,161.471 80.676,169.502 73.000 C 171.803 70.800,174.103 68.727,174.611 68.393 C 175.120 68.059,175.966 67.339,176.492 66.793 C 177.019 66.247,178.518 64.840,179.825 63.666 C 184.211 59.724,190.510 53.825,193.567 50.793 C 199.657 44.757,199.515 44.743,207.200 52.073 C 209.510 54.276,213.259 57.816,215.531 59.940 C 217.803 62.063,221.167 65.266,223.007 67.059 C 224.846 68.851,226.532 70.381,226.752 70.459 C 226.972 70.536,228.396 71.797,229.917 73.259 C 231.437 74.722,233.653 76.775,234.841 77.822 C 236.700 79.461,243.401 85.814,256.196 98.069 C 257.958 99.757,260.120 101.740,261.000 102.475 C 261.880 103.210,263.680 104.868,265.000 106.159 C 266.320 107.451,268.480 109.457,269.800 110.617 C 271.120 111.777,273.550 114.007,275.200 115.572 C 291.376 130.918,293.721 133.127,294.434 133.695 C 294.782 133.973,296.492 135.552,298.234 137.204 C 299.975 138.856,303.636 142.276,306.368 144.804 C 310.757 148.864,315.755 153.549,319.273 156.900 C 319.908 157.505,320.589 158.000,320.787 158.000 C 320.984 158.000,321.257 158.351,321.394 158.780 C 321.530 159.208,321.983 159.667,322.400 159.800 C 322.817 159.933,323.266 160.347,323.397 160.720 C 323.528 161.094,324.636 162.210,325.860 163.200 C 327.084 164.190,329.627 166.530,331.511 168.400 C 333.395 170.270,335.335 172.070,335.821 172.400 C 336.308 172.730,339.923 176.093,343.853 179.872 C 347.784 183.652,351.720 187.344,352.600 188.076 C 353.480 188.808,355.624 190.756,357.365 192.404 C 375.005 209.103,375.653 209.609,379.440 209.645 C 384.491 209.692,386.963 207.248,386.971 202.200 C 386.977 198.622,386.048 197.200,380.131 191.733 C 377.790 189.570,374.850 186.810,373.597 185.600 C 372.343 184.390,369.006 181.240,366.180 178.600 C 363.355 175.960,359.593 172.420,357.821 170.734 C 356.050 169.048,353.700 166.884,352.600 165.926 C 351.500 164.967,349.671 163.287,348.536 162.191 C 347.400 161.096,344.549 158.400,342.199 156.200 C 339.849 154.000,336.548 150.875,334.863 149.256 C 333.179 147.638,330.727 145.388,329.415 144.256 C 328.103 143.125,326.123 141.300,325.014 140.200 C 323.905 139.100,321.828 137.136,320.399 135.836 C 318.970 134.536,315.810 131.566,313.378 129.236 C 310.946 126.906,307.546 123.740,305.822 122.200 C 303.052 119.725,300.347 117.104,298.931 115.523 C 298.673 115.235,297.891 114.550,297.193 114.000 C 296.495 113.450,294.636 111.742,293.062 110.204 C 291.488 108.666,289.390 106.710,288.400 105.858 C 286.364 104.104,279.556 97.783,274.553 93.000 C 272.711 91.240,269.370 88.090,267.128 86.000 C 264.886 83.910,261.510 80.744,259.625 78.964 C 257.741 77.185,255.492 75.115,254.626 74.364 C 252.431 72.461,245.676 66.038,241.728 62.100 C 239.908 60.285,238.280 58.795,238.110 58.789 C 237.939 58.783,236.000 56.970,233.800 54.761 C 231.600 52.551,229.255 50.406,228.589 49.994 C 227.923 49.582,226.462 48.290,225.343 47.122 C 224.224 45.955,220.566 42.480,217.216 39.400 C 213.865 36.320,209.646 32.360,207.840 30.600 C 200.820 23.757,199.626 23.017,198.105 24.567 M265.525 52.769 C 264.493 52.913,263.309 53.339,262.893 53.716 C 262.477 54.092,261.961 54.400,261.747 54.400 C 259.629 54.400,257.595 59.799,258.414 63.245 C 259.799 69.067,261.068 69.281,293.400 69.144 C 320.371 69.030,320.137 69.014,320.640 71.018 C 320.778 71.565,320.915 82.887,320.945 96.177 L 321.000 120.341 321.906 121.470 C 322.404 122.092,322.999 122.965,323.229 123.411 C 323.979 124.865,329.929 126.685,330.566 125.655 C 330.683 125.465,331.610 125.077,332.626 124.793 C 333.642 124.508,334.577 123.989,334.704 123.638 C 334.832 123.287,335.356 122.491,335.868 121.869 L 336.800 120.739 336.800 86.835 L 336.800 52.931 316.934 52.665 C 293.381 52.351,268.153 52.402,265.525 52.769 M67.000 201.220 C 64.952 202.330,64.055 203.133,63.359 204.479 C 62.681 205.790,62.516 361.332,63.192 362.400 C 63.787 363.342,167.241 363.515,168.020 362.575 C 168.447 362.062,168.563 353.206,168.635 315.671 C 168.740 261.470,168.472 268.983,170.331 268.035 C 171.804 267.284,172.922 267.253,200.095 267.216 L 228.328 267.178 229.425 268.291 L 230.522 269.404 230.586 315.488 C 230.649 359.725,230.681 361.605,231.392 362.391 C 232.248 363.337,335.441 363.519,336.384 362.576 C 336.680 362.280,336.806 338.483,336.802 283.891 L 336.796 205.630 335.789 204.146 C 332.476 199.264,325.511 199.222,322.156 204.063 L 321.021 205.701 320.964 275.525 L 320.908 345.348 319.885 346.228 C 318.188 347.688,251.082 348.235,248.421 346.811 C 246.287 345.669,246.400 348.354,246.400 298.781 L 246.400 252.939 245.500 252.127 C 244.352 251.090,153.399 250.644,152.747 251.672 C 152.563 251.962,152.409 272.933,152.406 298.274 C 152.400 346.747,152.426 346.069,150.507 346.885 C 148.666 347.668,82.744 347.671,80.751 346.888 C 78.275 345.915,78.400 349.716,78.396 275.440 L 78.392 207.000 77.459 204.995 C 75.542 200.879,70.791 199.164,67.000 201.220 " stroke="none" fill="#2e2d3d" fill-rule="evenodd"></path><path id="path1" d="M0.000 200.000 L 0.000 400.000 200.000 400.000 L 400.000 400.000 400.000 200.000 L 400.000 0.000 200.000 0.000 L 0.000 0.000 0.000 200.000 M203.662 23.942 C 205.044 25.184,207.992 27.910,210.214 30.000 C 212.436 32.090,216.008 35.420,218.152 37.400 C 220.296 39.380,224.017 42.890,226.421 45.200 C 232.033 50.594,237.942 56.160,243.053 60.867 C 251.938 69.050,255.494 72.352,259.081 75.748 C 261.142 77.700,263.407 79.770,264.114 80.348 C 264.821 80.927,266.673 82.660,268.228 84.200 C 271.235 87.176,285.029 100.157,290.304 104.974 C 290.801 105.428,291.431 106.034,291.704 106.319 C 291.977 106.605,292.434 107.055,292.719 107.319 C 293.005 107.584,293.455 108.034,293.719 108.319 C 294.262 108.905,294.399 109.032,297.490 111.800 C 298.718 112.900,300.740 114.790,301.982 116.000 C 303.225 117.210,304.772 118.633,305.421 119.163 C 308.149 121.392,312.806 125.709,325.580 137.850 C 331.905 143.862,345.195 156.403,350.005 160.900 C 351.829 162.605,353.423 164.000,353.547 164.000 C 353.670 164.000,354.138 164.346,354.586 164.768 C 359.386 169.299,361.200 171.157,361.200 171.542 C 361.200 171.794,361.379 172.000,361.598 172.000 C 361.988 172.000,364.247 174.013,368.783 178.400 C 370.034 179.610,371.584 181.038,372.229 181.574 C 373.443 182.583,378.735 187.558,384.078 192.713 C 390.250 198.668,391.075 204.256,386.524 209.284 C 384.585 211.427,379.035 212.990,377.389 211.857 C 376.955 211.558,375.957 211.105,375.172 210.850 C 374.382 210.593,372.148 208.935,370.172 207.139 C 365.118 202.545,357.020 194.962,354.628 192.583 C 353.513 191.473,352.117 190.262,351.527 189.891 C 350.936 189.520,348.713 187.548,346.585 185.508 C 344.458 183.469,341.161 180.329,339.259 178.530 C 337.356 176.732,335.421 174.887,334.958 174.430 C 334.495 173.974,333.916 173.600,333.672 173.600 C 333.428 173.600,333.032 173.234,332.792 172.786 C 332.328 171.918,329.946 169.549,322.751 162.800 C 312.583 153.261,311.296 152.081,309.000 150.185 C 307.680 149.096,305.266 146.943,303.635 145.402 C 302.004 143.861,299.214 141.230,297.435 139.556 C 295.656 137.881,290.371 132.756,285.692 128.167 C 281.012 123.577,276.872 119.659,276.492 119.458 C 276.111 119.258,274.450 117.780,272.800 116.174 C 268.328 111.821,267.203 110.800,266.880 110.800 C 266.719 110.800,265.138 109.405,263.367 107.700 C 261.596 105.995,258.099 102.710,255.596 100.400 C 253.093 98.090,249.523 94.760,247.662 93.000 C 245.802 91.240,243.811 89.387,243.240 88.883 C 242.668 88.379,241.480 87.254,240.600 86.383 C 232.174 78.048,227.614 73.664,225.015 71.400 C 220.348 67.337,216.898 64.215,212.919 60.456 C 210.675 58.335,207.372 55.250,205.579 53.600 C 203.787 51.950,201.930 50.213,201.452 49.741 C 199.889 48.194,199.159 48.405,196.175 51.266 C 192.112 55.163,185.699 61.106,183.081 63.400 C 177.538 68.257,169.318 75.930,160.582 84.400 C 149.725 94.927,144.128 100.128,143.195 100.557 C 142.767 100.754,142.314 101.239,142.188 101.637 C 142.062 102.034,141.617 102.467,141.200 102.600 C 140.783 102.733,140.333 103.183,140.200 103.600 C 140.067 104.017,139.625 104.465,139.216 104.595 C 138.808 104.724,138.377 105.084,138.258 105.394 C 138.139 105.704,137.456 106.261,136.740 106.631 C 136.024 107.001,134.159 108.586,132.595 110.152 C 131.030 111.718,128.572 114.027,127.133 115.283 C 123.663 118.310,116.135 125.470,114.528 127.271 C 114.269 127.562,111.766 129.960,108.967 132.600 C 106.168 135.240,102.761 138.480,101.396 139.800 C 100.031 141.120,96.251 144.540,92.995 147.400 C 89.740 150.260,85.619 153.996,83.838 155.703 C 82.057 157.409,80.327 159.029,79.993 159.303 C 78.320 160.672,68.722 169.737,60.200 177.997 C 58.000 180.130,55.885 181.987,55.500 182.125 C 55.115 182.262,54.800 182.651,54.800 182.987 C 54.800 183.324,54.620 183.600,54.400 183.600 C 54.179 183.600,53.054 184.566,51.900 185.748 C 50.745 186.929,49.487 188.060,49.104 188.261 C 48.414 188.624,41.327 195.186,36.639 199.802 C 31.210 205.149,25.188 210.211,23.711 210.669 C 16.351 212.955,10.228 208.842,10.209 201.600 C 10.196 196.813,10.209 196.797,23.825 184.090 C 34.554 174.077,36.360 172.372,39.387 169.400 C 42.881 165.970,48.151 161.161,51.153 158.664 C 52.854 157.249,55.609 154.681,64.231 146.475 C 66.008 144.784,69.420 141.600,71.812 139.400 C 75.980 135.567,79.271 132.441,88.127 123.900 C 90.351 121.755,92.309 120.000,92.477 120.000 C 92.646 120.000,94.136 118.695,95.788 117.100 C 97.440 115.505,99.241 113.824,99.789 113.364 C 100.338 112.904,102.205 111.194,103.938 109.564 C 105.671 107.934,108.387 105.430,109.975 104.000 C 111.562 102.570,114.816 99.510,117.205 97.200 C 119.594 94.890,123.918 90.750,126.813 88.000 C 129.708 85.250,132.914 82.180,133.938 81.177 C 134.962 80.175,136.858 78.497,138.151 77.448 C 139.444 76.400,142.115 73.980,144.085 72.071 C 146.056 70.162,147.890 68.474,148.162 68.321 C 148.433 68.167,150.098 66.637,151.861 64.921 C 153.625 63.204,157.023 60.000,159.412 57.800 C 161.802 55.600,164.926 52.720,166.355 51.400 C 167.784 50.080,169.414 48.589,169.977 48.086 C 172.342 45.975,176.948 41.346,177.456 40.570 C 177.758 40.110,178.484 39.478,179.068 39.166 C 179.653 38.855,181.522 37.250,183.221 35.600 C 199.403 19.892,199.253 19.978,203.662 23.942 M337.769 52.133 L 338.702 53.066 339.001 84.941 C 339.212 107.478,339.172 117.312,338.865 118.508 C 338.626 119.439,338.318 120.793,338.180 121.518 C 338.042 122.243,337.504 123.294,336.986 123.853 C 336.467 124.412,335.989 124.989,335.922 125.135 C 333.817 129.718,323.476 128.334,320.212 123.032 L 319.000 121.064 318.800 96.565 C 318.690 83.091,318.488 71.954,318.350 71.816 C 318.213 71.679,306.243 71.529,291.750 71.483 L 265.400 71.400 263.625 70.500 C 262.649 70.005,261.627 69.600,261.356 69.600 C 259.283 69.600,256.000 64.678,256.000 61.572 C 256.000 57.756,256.329 56.935,258.882 54.382 C 262.176 51.088,259.697 51.276,300.318 51.236 L 336.836 51.200 337.769 52.133 M75.112 199.087 C 77.622 200.558,79.020 202.177,80.044 204.800 L 80.904 207.000 80.909 275.501 C 80.913 330.131,81.017 344.143,81.420 344.696 C 82.084 345.604,148.794 345.767,149.696 344.863 C 150.096 344.463,150.200 334.812,150.200 298.279 C 150.200 247.681,150.091 249.984,152.507 249.394 C 152.998 249.274,174.410 249.226,200.089 249.288 L 246.778 249.400 247.689 250.311 L 248.600 251.222 248.705 297.800 L 248.810 344.377 249.705 344.863 C 250.747 345.429,317.435 345.636,318.300 345.076 C 318.697 344.820,318.800 330.348,318.800 274.924 L 318.800 205.094 319.669 203.647 C 324.856 195.014,335.824 196.278,338.414 205.806 C 339.187 208.650,339.247 209.504,338.961 213.600 C 338.784 216.130,338.656 219.010,338.676 220.000 C 339.068 238.830,338.960 362.438,338.552 363.432 C 337.531 365.918,341.574 365.753,283.484 365.676 C 230.437 365.605,230.224 365.602,229.414 364.788 C 228.618 363.989,228.603 363.614,228.726 347.485 C 228.795 338.418,228.728 317.095,228.577 300.100 L 228.303 269.200 199.975 269.200 C 179.414 269.200,171.571 269.323,171.369 269.650 C 171.216 269.898,171.065 291.248,171.034 317.094 L 170.978 364.088 170.045 364.844 C 168.911 365.762,174.749 365.682,112.231 365.637 C 58.364 365.598,61.249 365.719,60.451 363.479 C 60.279 362.996,60.170 327.410,60.210 284.400 L 60.282 206.200 61.141 204.606 C 61.613 203.729,62.000 202.829,62.000 202.605 C 62.000 202.042,64.231 199.978,65.964 198.938 C 68.226 197.579,72.663 197.652,75.112 199.087 " stroke="none" fill="#f3f3f3" fill-rule="evenodd"></path><path id="path2" d="M197.312 22.581 C 195.713 23.762,189.560 29.447,183.221 35.600 C 181.522 37.250,179.653 38.855,179.068 39.166 C 178.484 39.478,177.758 40.110,177.456 40.570 C 176.948 41.346,172.342 45.975,169.977 48.086 C 169.414 48.589,167.784 50.080,166.355 51.400 C 164.926 52.720,161.802 55.600,159.412 57.800 C 157.023 60.000,153.625 63.204,151.861 64.921 C 150.098 66.637,148.433 68.167,148.162 68.321 C 147.890 68.474,146.056 70.162,144.085 72.071 C 142.115 73.980,139.444 76.400,138.151 77.448 C 136.858 78.497,134.962 80.175,133.938 81.177 C 132.914 82.180,129.708 85.250,126.813 88.000 C 123.918 90.750,119.594 94.890,117.205 97.200 C 114.816 99.510,111.562 102.570,109.975 104.000 C 108.387 105.430,105.671 107.934,103.938 109.564 C 102.205 111.194,100.338 112.904,99.789 113.364 C 99.241 113.824,97.440 115.505,95.788 117.100 C 94.136 118.695,92.646 120.000,92.477 120.000 C 92.309 120.000,90.351 121.755,88.127 123.900 C 79.271 132.441,75.980 135.567,71.812 139.400 C 69.420 141.600,66.008 144.784,64.231 146.475 C 55.609 154.681,52.854 157.249,51.153 158.664 C 48.151 161.161,42.881 165.970,39.387 169.400 C 36.360 172.372,34.554 174.077,23.825 184.090 C 10.209 196.797,10.196 196.813,10.209 201.600 C 10.228 208.842,16.351 212.955,23.711 210.669 C 25.188 210.211,31.210 205.149,36.639 199.802 C 41.327 195.186,48.414 188.624,49.104 188.261 C 49.487 188.060,50.745 186.929,51.900 185.748 C 53.054 184.566,54.179 183.600,54.400 183.600 C 54.620 183.600,54.800 183.324,54.800 182.987 C 54.800 182.651,55.115 182.262,55.500 182.125 C 55.885 181.987,58.000 180.130,60.200 177.997 C 68.722 169.737,78.320 160.672,79.993 159.303 C 80.327 159.029,82.057 157.409,83.838 155.703 C 85.619 153.996,89.740 150.260,92.995 147.400 C 96.251 144.540,100.031 141.120,101.396 139.800 C 102.761 138.480,106.168 135.240,108.967 132.600 C 111.766 129.960,114.269 127.562,114.528 127.271 C 116.135 125.470,123.663 118.310,127.133 115.283 C 128.572 114.027,131.030 111.718,132.595 110.152 C 134.159 108.586,136.024 107.001,136.740 106.631 C 137.456 106.261,138.139 105.704,138.258 105.394 C 138.377 105.084,138.808 104.724,139.216 104.595 C 139.625 104.465,140.067 104.017,140.200 103.600 C 140.333 103.183,140.783 102.733,141.200 102.600 C 141.617 102.467,142.062 102.034,142.188 101.637 C 142.314 101.239,142.767 100.754,143.195 100.557 C 144.128 100.128,149.725 94.927,160.582 84.400 C 169.318 75.930,177.538 68.257,183.081 63.400 C 185.699 61.106,192.112 55.163,196.175 51.266 C 199.159 48.405,199.889 48.194,201.452 49.741 C 201.930 50.213,203.787 51.950,205.579 53.600 C 207.372 55.250,210.675 58.335,212.919 60.456 C 216.898 64.215,220.348 67.337,225.015 71.400 C 227.614 73.664,232.174 78.048,240.600 86.383 C 241.480 87.254,242.668 88.379,243.240 88.883 C 243.811 89.387,245.802 91.240,247.662 93.000 C 249.523 94.760,253.093 98.090,255.596 100.400 C 258.099 102.710,261.596 105.995,263.367 107.700 C 265.138 109.405,266.719 110.800,266.880 110.800 C 267.203 110.800,268.328 111.821,272.800 116.174 C 274.450 117.780,276.111 119.258,276.492 119.458 C 276.872 119.659,281.012 123.577,285.692 128.167 C 290.371 132.756,295.656 137.881,297.435 139.556 C 299.214 141.230,302.004 143.861,303.635 145.402 C 305.266 146.943,307.680 149.096,309.000 150.185 C 311.296 152.081,312.583 153.261,322.751 162.800 C 329.946 169.549,332.328 171.918,332.792 172.786 C 333.032 173.234,333.428 173.600,333.672 173.600 C 333.916 173.600,334.495 173.974,334.958 174.430 C 335.421 174.887,337.356 176.732,339.259 178.530 C 341.161 180.329,344.458 183.469,346.585 185.508 C 348.713 187.548,350.936 189.520,351.527 189.891 C 352.117 190.262,353.513 191.473,354.628 192.583 C 357.020 194.962,365.118 202.545,370.172 207.139 C 372.148 208.935,374.382 210.593,375.172 210.850 C 375.957 211.105,376.955 211.558,377.389 211.857 C 379.035 212.990,384.585 211.427,386.524 209.284 C 391.075 204.256,390.250 198.668,384.078 192.713 C 378.735 187.558,373.443 182.583,372.229 181.574 C 371.584 181.038,370.034 179.610,368.783 178.400 C 364.247 174.013,361.988 172.000,361.598 172.000 C 361.379 172.000,361.200 171.794,361.200 171.542 C 361.200 171.157,359.386 169.299,354.586 164.768 C 354.138 164.346,353.670 164.000,353.547 164.000 C 353.423 164.000,351.829 162.605,350.005 160.900 C 345.195 156.403,331.905 143.862,325.580 137.850 C 312.806 125.709,308.149 121.392,305.421 119.163 C 304.772 118.633,303.225 117.210,301.982 116.000 C 300.740 114.790,298.718 112.900,297.490 111.800 C 294.399 109.032,294.262 108.905,293.719 108.319 C 293.455 108.034,293.005 107.584,292.719 107.319 C 292.434 107.055,291.977 106.605,291.704 106.319 C 291.431 106.034,290.801 105.428,290.304 104.974 C 285.029 100.157,271.235 87.176,268.228 84.200 C 266.673 82.660,264.821 80.927,264.114 80.348 C 263.407 79.770,261.142 77.700,259.081 75.748 C 255.494 72.352,251.938 69.050,243.053 60.867 C 237.942 56.160,232.033 50.594,226.421 45.200 C 224.017 42.890,220.296 39.380,218.152 37.400 C 216.008 35.420,212.436 32.090,210.214 30.000 C 200.231 20.609,200.092 20.529,197.312 22.581 M200.573 22.800 C 201.132 22.800,201.549 23.163,208.771 29.937 C 211.505 32.502,215.465 36.202,217.571 38.161 C 219.677 40.119,223.321 43.539,225.669 45.761 C 228.017 47.982,231.870 51.600,234.231 53.800 C 236.592 56.000,240.071 59.271,241.962 61.069 C 243.853 62.867,247.541 66.287,250.158 68.669 C 255.330 73.377,260.046 77.798,270.818 88.037 C 274.658 91.688,279.645 96.347,281.900 98.390 C 284.155 100.433,286.000 102.233,286.000 102.389 C 286.000 102.545,286.675 103.152,287.500 103.738 C 288.325 104.324,290.714 106.468,292.809 108.502 C 294.905 110.536,298.579 114.000,300.974 116.200 C 306.245 121.040,310.449 124.948,315.819 130.000 C 318.041 132.090,322.088 135.870,324.814 138.400 C 327.539 140.930,333.286 146.344,337.585 150.432 C 341.883 154.520,347.449 159.740,349.952 162.032 C 352.456 164.324,356.335 167.910,358.572 170.000 C 388.611 198.061,386.860 196.275,388.236 200.238 C 389.590 204.136,386.685 209.290,382.421 210.557 C 377.174 212.115,375.608 211.207,363.181 199.406 C 360.861 197.203,357.186 193.780,355.016 191.800 C 352.846 189.820,349.524 186.745,347.635 184.966 C 343.082 180.680,336.016 174.065,330.644 169.059 C 328.248 166.827,324.468 163.278,322.244 161.172 C 317.725 156.895,313.187 152.685,304.814 145.000 C 301.697 142.140,298.024 138.720,296.651 137.400 C 280.738 122.100,277.472 119.020,276.144 118.054 C 275.295 117.436,273.887 116.139,273.016 115.171 C 272.144 114.203,270.055 112.226,268.374 110.777 C 266.692 109.329,264.075 106.972,262.558 105.540 C 258.405 101.618,251.847 95.480,247.025 91.000 C 244.657 88.800,241.067 85.380,239.048 83.400 C 237.028 81.420,233.326 77.910,230.821 75.600 C 228.316 73.290,225.780 70.950,225.187 70.400 C 221.543 67.022,218.085 63.801,214.400 60.352 C 203.993 50.610,201.075 48.000,200.588 48.000 C 200.300 48.000,199.784 47.892,199.441 47.760 C 199.021 47.599,197.651 48.615,195.259 50.860 C 193.302 52.697,190.104 55.666,188.151 57.457 C 186.198 59.248,183.258 61.948,181.617 63.457 C 179.976 64.966,177.920 66.830,177.047 67.600 C 174.569 69.786,168.894 75.110,159.990 83.600 C 147.036 95.951,136.727 105.500,135.357 106.416 C 134.851 106.755,132.665 108.735,130.500 110.816 C 128.336 112.897,125.037 116.040,123.170 117.800 C 121.303 119.560,116.451 124.169,112.388 128.042 C 108.325 131.915,104.190 135.795,103.200 136.665 C 102.210 137.534,100.490 139.135,99.377 140.223 C 98.265 141.310,94.865 144.450,91.822 147.200 C 88.779 149.950,85.344 153.100,84.188 154.200 C 83.033 155.300,79.437 158.630,76.198 161.600 C 72.959 164.570,68.819 168.440,66.997 170.200 C 65.176 171.960,61.912 175.052,59.743 177.072 C 57.574 179.092,54.236 182.216,52.325 184.016 C 50.414 185.815,48.317 187.673,47.665 188.144 C 47.014 188.615,42.071 193.192,36.680 198.315 C 23.813 210.543,24.296 210.200,19.972 210.200 C 14.398 210.200,10.800 206.761,10.800 201.432 C 10.800 197.658,12.224 195.909,24.179 184.997 C 28.609 180.953,34.736 175.237,40.623 169.656 C 42.396 167.975,45.802 164.800,48.193 162.600 C 50.584 160.400,54.188 157.070,56.202 155.200 C 58.217 153.330,61.830 149.977,64.232 147.749 C 66.635 145.521,73.794 138.771,80.143 132.749 C 86.491 126.727,92.161 121.453,92.743 121.029 C 93.324 120.605,95.246 118.895,97.014 117.229 C 98.782 115.563,102.184 112.400,104.573 110.200 C 110.276 104.949,115.300 100.241,119.989 95.752 C 126.970 89.071,137.380 79.331,139.000 77.966 C 139.880 77.225,144.049 73.374,148.265 69.409 C 152.480 65.444,157.970 60.327,160.465 58.037 C 167.393 51.679,173.340 46.115,176.752 42.800 C 178.450 41.150,181.715 38.090,184.007 36.000 C 186.299 33.910,189.890 30.567,191.987 28.571 C 196.890 23.904,198.865 22.339,199.530 22.595 C 199.825 22.708,200.294 22.800,200.573 22.800 M262.528 51.640 C 260.765 52.151,256.577 56.414,256.255 58.027 C 255.263 62.984,258.179 69.600,261.356 69.600 C 261.627 69.600,262.649 70.005,263.625 70.500 L 265.400 71.400 291.750 71.483 C 306.243 71.529,318.213 71.679,318.350 71.816 C 318.488 71.954,318.690 83.091,318.800 96.565 L 319.000 121.064 320.212 123.032 C 323.476 128.334,333.817 129.718,335.922 125.135 C 335.989 124.989,336.467 124.412,336.986 123.853 C 337.504 123.294,338.042 122.243,338.180 121.518 C 338.318 120.793,338.626 119.439,338.865 118.508 C 339.172 117.312,339.212 107.478,339.001 84.941 L 338.702 53.066 337.769 52.133 L 336.836 51.200 300.318 51.236 C 279.387 51.257,263.257 51.429,262.528 51.640 M337.297 52.688 C 338.058 53.376,338.384 116.436,337.647 120.244 C 336.359 126.886,327.151 129.225,322.321 124.137 C 319.952 121.640,320.000 122.223,320.000 96.042 L 320.000 72.058 319.021 71.288 C 318.072 70.542,317.263 70.523,293.240 70.697 C 271.659 70.854,268.189 70.797,266.519 70.261 C 265.464 69.922,263.825 69.445,262.877 69.201 C 253.872 66.882,255.703 53.083,265.169 51.928 C 270.255 51.307,336.543 52.005,337.297 52.688 M65.964 198.938 C 64.231 199.978,62.000 202.042,62.000 202.605 C 62.000 202.829,61.613 203.729,61.141 204.606 L 60.282 206.200 60.210 284.400 C 60.170 327.410,60.279 362.996,60.451 363.479 C 61.249 365.719,58.364 365.598,112.231 365.637 C 174.749 365.682,168.911 365.762,170.045 364.844 L 170.978 364.088 171.034 317.094 C 171.065 291.248,171.216 269.898,171.369 269.650 C 171.571 269.323,179.414 269.200,199.975 269.200 L 228.303 269.200 228.577 300.100 C 228.728 317.095,228.795 338.418,228.726 347.485 C 228.603 363.614,228.618 363.989,229.414 364.788 C 230.224 365.602,230.437 365.605,283.484 365.676 C 341.574 365.753,337.531 365.918,338.552 363.432 C 338.960 362.438,339.068 238.830,338.676 220.000 C 338.656 219.010,338.784 216.130,338.961 213.600 C 339.247 209.504,339.187 208.650,338.414 205.806 C 335.824 196.278,324.856 195.014,319.669 203.647 L 318.800 205.094 318.800 274.924 C 318.800 330.348,318.697 344.820,318.300 345.076 C 317.435 345.636,250.747 345.429,249.705 344.863 L 248.810 344.377 248.705 297.800 L 248.600 251.222 247.689 250.311 L 246.778 249.400 200.089 249.288 C 174.410 249.226,152.998 249.274,152.507 249.394 C 150.091 249.984,150.200 247.681,150.200 298.279 C 150.200 334.812,150.096 344.463,149.696 344.863 C 148.794 345.767,82.084 345.604,81.420 344.696 C 81.017 344.143,80.913 330.131,80.909 275.501 L 80.904 207.000 80.044 204.800 C 77.777 198.995,70.745 196.067,65.964 198.938 M75.465 200.639 C 76.309 201.320,77.540 202.639,78.200 203.572 L 79.400 205.269 79.497 274.934 L 79.595 344.600 80.442 345.300 C 81.652 346.301,149.280 346.368,150.600 345.370 C 151.392 344.771,151.400 344.297,151.400 298.225 C 151.400 253.021,151.422 251.662,152.162 250.843 L 152.924 250.000 198.882 250.000 C 248.011 250.000,246.504 249.942,247.452 251.885 C 247.643 252.279,247.800 273.338,247.800 298.732 C 247.800 343.935,247.816 344.875,248.576 345.432 C 249.803 346.330,317.826 346.277,319.111 345.377 L 320.000 344.755 320.000 275.161 C 320.000 207.466,320.021 205.528,320.763 204.084 C 324.179 197.444,333.414 197.509,337.133 204.200 C 338.119 205.974,338.375 361.315,337.395 363.210 C 336.640 364.670,344.145 364.473,284.000 364.611 C 232.162 364.729,230.373 364.685,229.787 363.281 C 229.631 362.906,229.458 341.676,229.403 316.103 C 229.325 279.580,229.196 269.477,228.803 269.003 C 228.032 268.074,172.216 268.093,170.889 269.023 L 170.000 269.645 170.000 315.804 C 170.000 365.553,170.083 363.680,167.841 364.344 C 166.885 364.628,67.150 364.732,63.494 364.454 C 63.106 364.424,62.469 363.876,62.079 363.234 C 61.201 361.789,61.072 208.513,61.947 205.352 C 63.479 199.817,71.131 197.149,75.465 200.639 " stroke="none" fill="#a7a8ae" fill-rule="evenodd"></path><path id="path3" d="M197.305 23.755 C 196.373 24.497,193.588 27.060,191.116 29.452 C 188.644 31.843,187.067 33.442,187.611 33.004 C 188.155 32.566,190.312 30.573,192.404 28.575 C 194.497 26.578,196.999 24.371,197.964 23.672 C 198.930 22.972,199.558 22.402,199.360 22.404 C 199.162 22.406,198.237 23.014,197.305 23.755 M202.000 24.088 C 202.000 24.166,202.855 24.933,203.900 25.792 C 204.945 26.651,205.440 26.940,205.000 26.434 C 204.222 25.539,202.000 23.802,202.000 24.088 M206.220 27.707 C 206.410 28.202,208.800 30.234,208.800 29.900 C 208.800 29.832,208.170 29.182,207.400 28.456 C 206.630 27.729,206.099 27.392,206.220 27.707 M212.200 33.471 C 212.640 33.920,214.890 36.051,217.200 38.206 C 219.510 40.362,222.470 43.132,223.778 44.363 C 225.086 45.593,225.806 46.143,225.378 45.585 C 224.950 45.026,222.980 43.120,221.000 41.348 C 219.020 39.577,217.149 37.824,216.843 37.453 C 216.536 37.083,215.186 35.852,213.843 34.717 C 212.499 33.583,211.760 33.022,212.200 33.471 M185.199 34.900 C 184.610 35.704,184.513 35.984,184.945 35.633 C 185.601 35.100,186.593 33.600,186.289 33.600 C 186.213 33.600,185.722 34.185,185.199 34.900 M183.600 36.236 C 183.600 36.440,182.161 37.829,180.403 39.323 C 178.645 40.818,176.995 42.436,176.736 42.920 C 176.441 43.471,176.776 43.273,177.632 42.389 C 178.385 41.612,180.163 39.956,181.585 38.707 C 183.007 37.458,184.042 36.308,183.885 36.152 C 183.728 35.995,183.600 36.033,183.600 36.236 M172.000 47.268 C 170.952 48.220,170.701 48.565,171.400 48.095 C 172.504 47.351,174.338 45.577,173.962 45.617 C 173.873 45.626,172.990 46.370,172.000 47.268 M227.600 48.200 C 228.346 48.970,229.047 49.600,229.157 49.600 C 229.267 49.600,228.746 48.970,228.000 48.200 C 227.254 47.430,226.553 46.800,226.443 46.800 C 226.333 46.800,226.854 47.430,227.600 48.200 M195.213 50.500 C 193.276 52.315,191.165 54.250,190.521 54.800 C 188.213 56.771,183.637 61.200,183.916 61.193 C 184.072 61.189,185.639 59.794,187.398 58.093 C 189.157 56.392,190.982 54.730,191.453 54.400 C 192.551 53.631,199.254 47.200,198.958 47.200 C 198.835 47.200,197.150 48.685,195.213 50.500 M200.272 47.879 C 200.752 47.972,203.235 50.018,205.790 52.424 C 208.345 54.831,210.562 56.794,210.717 56.787 C 210.873 56.779,210.550 56.399,210.000 55.942 C 209.450 55.485,207.242 53.421,205.093 51.355 C 202.367 48.736,200.916 47.616,200.293 47.654 L 199.400 47.709 200.272 47.879 M167.600 51.400 C 166.628 52.390,165.923 53.200,166.033 53.200 C 166.143 53.200,167.028 52.390,168.000 51.400 C 168.972 50.410,169.677 49.600,169.567 49.600 C 169.457 49.600,168.572 50.410,167.600 51.400 M277.528 51.900 C 283.318 51.962,292.678 51.962,298.328 51.900 C 303.978 51.837,299.240 51.786,287.800 51.786 C 276.360 51.786,271.738 51.837,277.528 51.900 M261.893 53.014 C 261.072 53.572,260.400 54.125,260.400 54.242 C 260.400 54.359,260.961 54.055,261.646 53.567 C 262.331 53.079,263.456 52.546,264.146 52.381 C 265.261 52.115,265.289 52.077,264.393 52.041 C 263.839 52.018,262.714 52.456,261.893 53.014 M337.791 86.200 C 337.791 104.460,337.840 111.988,337.900 102.930 C 337.960 93.871,337.960 78.931,337.900 69.730 C 337.840 60.528,337.791 67.940,337.791 86.200 M161.986 56.641 C 160.784 57.873,158.360 60.115,156.600 61.623 C 154.840 63.131,150.520 67.183,147.000 70.627 L 140.600 76.890 147.531 70.345 C 151.343 66.745,155.663 62.786,157.131 61.546 C 159.790 59.300,164.756 54.400,164.374 54.400 C 164.263 54.400,163.189 55.408,161.986 56.641 M258.565 55.811 C 257.973 56.587,257.559 57.287,257.644 57.367 C 257.730 57.446,258.293 56.812,258.896 55.956 C 260.265 54.014,260.018 53.906,258.565 55.811 M236.400 56.102 C 236.400 56.202,237.705 57.432,239.300 58.837 C 240.895 60.241,241.949 61.072,241.643 60.685 C 240.977 59.843,236.400 55.842,236.400 56.102 M211.653 57.485 C 212.195 58.283,214.401 60.245,214.400 59.929 C 214.399 59.858,213.646 59.080,212.725 58.200 C 211.804 57.320,211.322 56.998,211.653 57.485 M256.909 61.200 C 256.909 62.190,256.987 62.595,257.082 62.100 C 257.178 61.605,257.178 60.795,257.082 60.300 C 256.987 59.805,256.909 60.210,256.909 61.200 M216.658 62.500 C 217.920 63.655,220.133 65.666,221.576 66.970 L 224.200 69.339 221.400 66.601 C 216.826 62.128,214.943 60.400,214.645 60.400 C 214.490 60.400,215.395 61.345,216.658 62.500 M180.185 64.500 L 178.200 66.600 180.300 64.615 C 181.455 63.523,182.400 62.578,182.400 62.515 C 182.400 62.217,182.029 62.549,180.185 64.500 M248.400 67.450 C 250.490 69.444,252.920 71.675,253.800 72.409 C 254.680 73.143,257.114 75.376,259.210 77.372 L 263.019 81.000 258.974 77.000 C 254.286 72.364,246.653 65.267,245.437 64.412 C 244.976 64.089,246.310 65.456,248.400 67.450 M257.612 64.715 C 257.605 64.999,258.275 65.907,259.100 66.733 C 259.935 67.570,260.136 67.696,259.553 67.018 C 258.977 66.348,258.307 65.440,258.065 65.000 C 257.823 64.560,257.619 64.432,257.612 64.715 M169.200 74.476 C 164.376 79.155,164.269 79.285,168.200 75.695 C 172.498 71.769,175.126 69.181,174.775 69.219 C 174.679 69.229,172.170 71.595,169.200 74.476 M266.400 70.164 C 267.326 70.544,269.155 70.726,271.800 70.700 L 275.800 70.662 271.400 70.383 C 268.980 70.230,266.550 69.989,266.000 69.847 C 265.450 69.705,265.630 69.848,266.400 70.164 M313.060 70.377 C 317.472 70.564,318.455 70.723,319.160 71.362 C 319.622 71.781,320.000 71.921,320.000 71.672 C 320.000 70.508,317.680 69.999,312.720 70.077 L 307.800 70.154 313.060 70.377 M280.923 70.699 C 283.520 70.769,287.660 70.768,290.123 70.698 C 292.585 70.628,290.460 70.571,285.400 70.572 C 280.340 70.572,278.325 70.629,280.923 70.699 M298.319 70.698 C 300.144 70.772,303.024 70.772,304.719 70.697 C 306.414 70.622,304.920 70.561,301.400 70.562 C 297.880 70.562,296.494 70.624,298.319 70.698 M320.159 78.800 C 320.159 81.990,320.221 83.295,320.297 81.700 C 320.373 80.105,320.373 77.495,320.297 75.900 C 320.221 74.305,320.159 75.610,320.159 78.800 M132.815 83.700 C 128.794 87.495,124.567 91.410,123.420 92.400 C 122.273 93.390,121.002 94.650,120.596 95.200 C 119.815 96.258,120.893 95.282,130.800 85.967 C 134.210 82.761,137.810 79.391,138.800 78.479 C 139.790 77.566,140.493 76.816,140.362 76.810 C 140.231 76.805,136.835 79.905,132.815 83.700 M233.217 77.800 C 233.538 78.240,234.160 78.851,234.600 79.158 C 235.040 79.465,237.048 81.355,239.062 83.358 C 241.076 85.361,244.759 88.890,247.247 91.200 C 249.735 93.510,253.443 97.001,255.486 98.959 C 257.528 100.916,259.200 102.423,259.200 102.308 C 259.200 102.193,255.735 98.812,251.500 94.795 C 247.265 90.779,242.000 85.759,239.800 83.640 C 234.872 78.894,232.449 76.745,233.217 77.800 M157.400 85.688 L 151.400 91.699 157.200 86.217 C 162.048 81.636,164.164 79.432,163.520 79.638 C 163.454 79.659,160.700 82.382,157.400 85.688 M266.600 84.343 C 268.360 86.162,270.115 87.825,270.499 88.039 C 270.884 88.253,270.074 87.314,268.699 85.953 C 264.588 81.884,263.161 80.789,266.600 84.343 M275.417 92.657 C 277.626 94.826,280.956 97.930,282.817 99.555 C 286.773 103.010,284.412 100.709,276.800 93.692 C 272.290 89.535,272.062 89.364,275.417 92.657 M147.753 94.701 C 145.967 96.405,142.392 99.690,139.808 102.000 C 137.225 104.310,133.466 107.810,131.455 109.777 L 127.800 113.354 131.459 109.977 C 133.471 108.120,137.238 104.710,139.830 102.400 C 145.051 97.746,151.511 91.614,151.200 91.607 C 151.090 91.604,149.539 92.996,147.753 94.701 M117.200 98.474 C 116.210 99.376,115.760 99.924,116.200 99.692 C 116.952 99.294,119.552 96.781,119.175 96.816 C 119.079 96.825,118.190 97.571,117.200 98.474 M261.385 104.325 C 262.477 105.466,263.430 106.400,263.504 106.400 C 263.836 106.400,262.114 104.487,260.825 103.425 C 259.812 102.589,259.973 102.849,261.385 104.325 M289.487 105.609 C 290.195 106.351,290.842 106.878,290.925 106.779 C 291.008 106.681,290.429 106.073,289.638 105.429 L 288.200 104.258 289.487 105.609 M108.567 106.629 L 107.000 108.058 108.700 106.762 C 110.253 105.578,110.632 105.200,110.267 105.200 C 110.193 105.200,109.428 105.843,108.567 106.629 M293.400 109.600 C 294.706 110.920,295.865 112.000,295.975 112.000 C 296.085 112.000,295.106 110.920,293.800 109.600 C 292.494 108.280,291.335 107.200,291.225 107.200 C 291.115 107.200,292.094 108.280,293.400 109.600 M266.000 108.512 C 266.000 108.616,267.207 109.759,268.682 111.051 C 270.157 112.343,271.237 113.194,271.083 112.941 C 270.739 112.376,266.000 108.247,266.000 108.512 M101.000 113.480 C 97.485 116.685,92.779 121.251,93.316 120.935 C 94.010 120.527,103.073 111.996,102.797 112.011 C 102.688 112.017,101.880 112.678,101.000 113.480 M296.400 112.125 C 296.400 112.194,296.985 112.779,297.700 113.425 L 299.000 114.600 297.825 113.300 C 296.730 112.088,296.400 111.816,296.400 112.125 M271.915 113.800 C 272.148 114.240,273.202 115.410,274.257 116.400 L 276.175 118.200 274.011 115.800 C 272.821 114.480,271.767 113.310,271.669 113.200 C 271.572 113.090,271.682 113.360,271.915 113.800 M123.787 116.900 L 121.400 119.400 123.900 117.013 C 126.222 114.795,126.583 114.400,126.287 114.400 C 126.226 114.400,125.101 115.525,123.787 116.900 M300.000 115.746 C 300.000 115.856,300.540 116.330,301.200 116.800 C 301.860 117.270,302.400 117.564,302.400 117.454 C 302.400 117.344,301.860 116.870,301.200 116.400 C 300.540 115.930,300.000 115.636,300.000 115.746 M303.400 118.969 C 305.470 120.763,307.170 121.844,305.400 120.240 C 304.520 119.442,303.440 118.596,303.000 118.359 C 302.560 118.123,302.740 118.397,303.400 118.969 M320.093 119.200 C 320.093 119.970,320.175 120.285,320.276 119.900 C 320.376 119.515,320.376 118.885,320.276 118.500 C 320.175 118.115,320.093 118.430,320.093 119.200 M281.593 122.900 C 285.487 126.894,286.000 127.382,286.000 127.093 C 286.000 127.034,284.065 125.099,281.700 122.793 L 277.400 118.600 281.593 122.900 M115.715 124.417 C 113.688 126.394,112.338 127.842,112.715 127.634 C 113.428 127.240,119.926 120.792,119.591 120.811 C 119.486 120.817,117.742 122.439,115.715 124.417 M88.192 125.300 L 84.200 129.400 88.300 125.408 C 92.108 121.699,92.582 121.200,92.292 121.200 C 92.233 121.200,90.388 123.045,88.192 125.300 M309.535 124.485 C 311.001 125.852,313.743 128.417,315.630 130.185 C 317.516 131.953,316.436 130.837,313.230 127.704 C 310.023 124.572,307.281 122.007,307.135 122.004 C 306.989 122.002,308.069 123.118,309.535 124.485 M321.143 122.600 C 321.940 124.243,325.445 126.807,326.880 126.796 C 327.166 126.794,326.493 126.370,325.385 125.854 C 324.277 125.338,322.782 124.215,322.063 123.358 C 321.344 122.501,320.930 122.160,321.143 122.600 M332.000 126.000 C 331.230 126.422,330.780 126.766,331.000 126.766 C 331.220 126.766,332.030 126.422,332.800 126.000 C 333.570 125.578,334.020 125.234,333.800 125.234 C 333.580 125.234,332.770 125.578,332.000 126.000 M328.305 127.083 C 328.802 127.179,329.522 127.175,329.905 127.075 C 330.287 126.975,329.880 126.896,329.000 126.901 C 328.120 126.905,327.807 126.987,328.305 127.083 M107.790 131.905 C 105.805 133.827,102.216 137.200,99.816 139.400 C 97.415 141.600,93.910 144.919,92.026 146.776 L 88.600 150.152 92.044 146.976 C 93.937 145.229,97.441 142.000,99.830 139.800 C 106.392 133.755,111.954 128.399,111.661 128.405 C 111.517 128.408,109.776 129.983,107.790 131.905 M80.391 132.700 L 77.000 136.200 80.500 132.809 C 83.751 129.659,84.182 129.200,83.891 129.200 C 83.831 129.200,82.256 130.775,80.391 132.700 M289.200 130.400 C 289.670 131.060,290.144 131.600,290.254 131.600 C 290.364 131.600,290.070 131.060,289.600 130.400 C 289.130 129.740,288.656 129.200,288.546 129.200 C 288.436 129.200,288.730 129.740,289.200 130.400 M295.698 136.415 C 297.622 138.277,301.739 142.140,304.846 145.000 C 307.953 147.860,312.139 151.720,314.148 153.577 L 317.800 156.954 314.163 153.377 C 309.627 148.916,296.094 136.275,293.862 134.415 C 292.948 133.653,293.774 134.553,295.698 136.415 M322.626 136.600 C 324.204 138.140,325.924 139.745,326.448 140.166 C 327.641 141.125,322.640 136.256,320.978 134.841 C 320.306 134.268,321.048 135.060,322.626 136.600 M72.992 139.700 L 69.400 143.400 73.100 139.808 C 75.135 137.833,76.800 136.168,76.800 136.108 C 76.800 135.818,76.328 136.264,72.992 139.700 M328.686 142.472 C 329.519 143.171,332.011 145.466,334.225 147.572 C 336.439 149.677,335.931 149.105,333.097 146.300 C 330.263 143.495,327.770 141.200,327.558 141.200 C 327.346 141.200,327.853 141.772,328.686 142.472 M66.800 145.270 C 65.268 146.688,65.086 146.939,66.200 146.097 C 67.684 144.976,69.534 143.178,69.162 143.217 C 69.073 143.227,68.010 144.151,66.800 145.270 M62.350 149.700 C 61.152 150.855,60.628 151.440,61.186 151.000 C 62.581 149.900,64.978 147.600,64.731 147.600 C 64.620 147.600,63.548 148.545,62.350 149.700 M86.600 151.468 C 85.720 152.257,85.360 152.716,85.800 152.488 C 86.541 152.104,88.751 149.979,88.370 150.017 C 88.276 150.026,87.480 150.679,86.600 151.468 M342.000 155.000 C 343.860 156.870,345.472 158.400,345.582 158.400 C 345.692 158.400,344.260 156.870,342.400 155.000 C 340.540 153.130,338.928 151.600,338.818 151.600 C 338.708 151.600,340.140 153.130,342.000 155.000 M56.191 155.300 L 53.000 158.600 56.300 155.409 C 58.115 153.655,59.600 152.170,59.600 152.109 C 59.600 151.818,59.154 152.235,56.191 155.300 M81.600 156.285 C 79.649 158.296,79.603 158.377,81.200 157.000 C 82.771 155.646,84.285 153.982,83.923 154.009 C 83.855 154.014,82.810 155.038,81.600 156.285 M322.015 160.825 C 327.320 166.079,330.024 168.528,329.759 167.838 C 329.646 167.543,328.397 166.364,326.984 165.217 C 325.570 164.070,324.005 162.652,323.504 162.066 C 323.004 161.480,321.516 160.021,320.197 158.825 C 318.879 157.628,319.697 158.528,322.015 160.825 M75.800 161.523 C 74.040 163.233,71.790 165.323,70.800 166.165 C 69.810 167.008,69.367 167.510,69.816 167.280 C 70.654 166.851,79.559 158.447,79.200 158.425 C 79.090 158.418,77.560 159.812,75.800 161.523 M346.000 158.510 C 346.000 158.571,347.395 159.966,349.100 161.610 L 352.200 164.600 349.210 161.500 C 346.433 158.621,346.000 158.217,346.000 158.510 M46.122 164.566 C 45.505 165.097,45.090 165.596,45.200 165.674 C 45.310 165.752,45.918 165.317,46.550 164.708 C 47.965 163.345,47.659 163.243,46.122 164.566 M358.000 169.800 C 359.860 171.670,361.472 173.200,361.582 173.200 C 361.692 173.200,360.260 171.670,358.400 169.800 C 356.540 167.930,354.928 166.400,354.818 166.400 C 354.708 166.400,356.140 167.930,358.000 169.800 M41.978 168.272 L 40.600 169.745 41.873 168.772 C 42.933 167.962,43.872 166.800,43.466 166.800 C 43.406 166.800,42.737 167.463,41.978 168.272 M39.523 170.700 C 38.818 171.521,38.290 172.400,38.501 172.400 C 38.583 172.400,39.049 171.860,39.537 171.200 C 40.501 169.896,40.492 169.572,39.523 170.700 M64.217 172.478 C 63.285 173.455,63.219 173.618,63.908 173.249 C 64.389 172.992,64.972 172.426,65.205 171.991 C 65.769 170.936,65.617 171.011,64.217 172.478 M32.694 177.057 C 26.674 182.786,25.746 183.726,27.800 182.013 C 29.856 180.298,38.068 172.400,37.795 172.400 C 37.681 172.400,35.386 174.496,32.694 177.057 M334.800 172.851 C 334.910 172.939,336.980 174.894,339.400 177.197 L 343.800 181.384 340.000 177.465 C 337.910 175.309,335.840 173.354,335.400 173.119 C 334.960 172.884,334.690 172.763,334.800 172.851 M363.800 175.200 C 364.883 176.300,365.860 177.200,365.970 177.200 C 366.080 177.200,365.283 176.300,364.200 175.200 C 363.117 174.100,362.140 173.200,362.030 173.200 C 361.920 173.200,362.717 174.100,363.800 175.200 M56.567 179.829 L 55.000 181.258 56.700 179.962 C 58.253 178.778,58.632 178.400,58.267 178.400 C 58.193 178.400,57.428 179.043,56.567 179.829 M371.200 182.049 C 374.764 185.585,379.516 189.887,377.400 187.662 C 376.080 186.274,373.920 184.220,372.600 183.097 C 371.280 181.975,370.650 181.503,371.200 182.049 M50.856 185.070 L 48.200 187.739 51.000 185.187 C 52.540 183.784,53.875 182.583,53.967 182.518 C 54.058 182.453,53.994 182.400,53.823 182.400 C 53.652 182.400,52.317 183.601,50.856 185.070 M347.800 185.200 C 349.328 186.740,350.669 188.000,350.779 188.000 C 350.889 188.000,349.728 186.740,348.200 185.200 C 346.672 183.660,345.331 182.400,345.221 182.400 C 345.111 182.400,346.272 183.660,347.800 185.200 M24.781 184.269 C 24.242 184.857,21.357 187.692,18.370 190.569 C 15.384 193.446,14.394 194.439,16.170 192.776 C 17.947 191.112,20.660 188.606,22.200 187.206 C 24.697 184.935,26.302 183.200,25.904 183.200 C 25.826 183.200,25.321 183.681,24.781 184.269 M42.792 192.300 L 39.000 196.200 42.900 192.408 C 46.522 188.886,46.982 188.400,46.692 188.400 C 46.633 188.400,44.878 190.155,42.792 192.300 M382.664 192.802 C 384.239 194.451,385.994 196.500,386.564 197.356 C 387.134 198.212,387.600 198.723,387.600 198.492 C 387.600 197.839,384.735 194.430,382.145 192.002 C 380.141 190.123,380.216 190.239,382.664 192.802 M357.400 194.000 C 358.706 195.320,359.865 196.400,359.975 196.400 C 360.085 196.400,359.106 195.320,357.800 194.000 C 356.494 192.680,355.335 191.600,355.225 191.600 C 355.115 191.600,356.094 192.680,357.400 194.000 M35.391 199.300 L 32.200 202.600 35.500 199.409 C 37.315 197.655,38.800 196.170,38.800 196.109 C 38.800 195.818,38.354 196.235,35.391 199.300 M11.640 197.823 C 11.178 198.605,10.818 199.550,10.840 199.923 C 10.871 200.459,10.934 200.434,11.141 199.800 C 11.285 199.360,11.722 198.415,12.112 197.700 C 13.070 195.943,12.691 196.041,11.640 197.823 M362.203 198.342 C 366.549 203.002,375.233 210.435,376.274 210.384 C 376.453 210.375,376.060 210.078,375.400 209.724 C 374.070 209.010,369.304 204.859,363.803 199.623 C 361.825 197.740,361.105 197.164,362.203 198.342 M65.978 200.339 C 65.000 200.966,63.840 201.897,63.400 202.408 C 62.960 202.919,63.562 202.586,64.739 201.667 C 65.915 200.748,67.355 199.891,67.939 199.763 C 69.671 199.383,69.857 199.265,68.778 199.232 C 68.216 199.214,66.956 199.713,65.978 200.339 M73.120 199.671 C 74.863 200.273,77.357 202.608,78.379 204.594 C 78.831 205.471,79.200 205.903,79.200 205.554 C 79.200 203.808,75.183 199.845,73.000 199.439 C 71.848 199.224,71.853 199.233,73.120 199.671 M325.200 199.838 C 322.487 201.013,319.750 204.621,320.122 206.531 C 320.270 207.294,320.298 207.275,320.346 206.378 C 320.482 203.821,323.319 200.778,326.489 199.788 C 327.430 199.494,327.840 199.249,327.400 199.242 C 326.960 199.236,325.970 199.504,325.200 199.838 M330.228 199.597 C 332.859 199.984,333.569 200.391,335.614 202.692 C 336.547 203.741,337.120 204.240,336.887 203.800 C 335.528 201.235,332.244 199.163,329.674 199.250 C 328.365 199.294,328.427 199.333,330.228 199.597 M388.323 202.400 C 388.183 203.170,387.960 204.160,387.828 204.600 C 387.696 205.040,387.871 204.793,388.215 204.051 C 388.560 203.308,388.783 202.318,388.711 201.851 C 388.617 201.245,388.505 201.403,388.323 202.400 M10.834 202.920 C 10.799 203.656,11.857 206.000,12.224 206.000 C 12.336 206.000,12.217 205.606,11.959 205.123 C 11.701 204.641,11.350 203.786,11.179 203.223 C 10.973 202.543,10.857 202.441,10.834 202.920 M28.989 205.300 L 26.200 208.200 29.100 205.411 C 31.794 202.820,32.183 202.400,31.889 202.400 C 31.828 202.400,30.523 203.705,28.989 205.300 M386.707 206.726 C 386.335 207.317,385.710 208.250,385.320 208.800 C 384.669 209.716,384.667 209.754,385.300 209.255 C 386.085 208.636,387.770 206.037,387.538 205.805 C 387.454 205.721,387.080 206.135,386.707 206.726 M61.449 206.615 C 61.312 206.973,61.232 208.826,61.271 210.733 L 61.343 214.200 61.578 210.200 C 61.832 205.867,61.824 205.639,61.449 206.615 M79.314 208.200 C 79.317 209.300,79.395 209.703,79.487 209.095 C 79.579 208.486,79.577 207.586,79.482 207.095 C 79.387 206.603,79.311 207.100,79.314 208.200 M337.699 284.326 C 337.603 359.660,337.556 362.832,336.513 364.000 C 336.415 364.110,330.364 364.297,323.067 364.415 L 309.800 364.631 322.050 364.715 C 328.787 364.762,334.870 364.686,335.567 364.547 C 338.184 364.023,338.012 369.919,337.900 284.318 L 337.798 206.600 337.699 284.326 M12.944 207.509 C 13.260 208.021,15.600 209.753,15.600 209.475 C 15.600 209.376,14.939 208.791,14.132 208.175 C 13.324 207.559,12.789 207.259,12.944 207.509 M18.291 210.289 C 19.001 210.377,20.261 210.379,21.091 210.292 C 21.921 210.205,21.340 210.133,19.800 210.131 C 18.260 210.129,17.581 210.200,18.291 210.289 M378.705 211.083 C 379.202 211.179,379.922 211.175,380.305 211.075 C 380.687 210.975,380.280 210.896,379.400 210.901 C 378.520 210.905,378.207 210.987,378.705 211.083 M320.187 235.600 C 320.187 248.030,320.238 253.115,320.300 246.900 C 320.362 240.685,320.362 230.515,320.300 224.300 C 320.238 218.085,320.187 223.170,320.187 235.600 M79.387 236.200 C 79.387 248.740,79.438 253.812,79.500 247.472 C 79.562 241.131,79.562 230.871,79.500 224.672 C 79.438 218.472,79.387 223.660,79.387 236.200 M61.786 235.800 C 61.786 247.240,61.837 251.862,61.900 246.072 C 61.962 240.282,61.962 230.922,61.900 225.272 C 61.837 219.622,61.786 224.360,61.786 235.800 M152.262 250.731 C 151.898 251.134,151.603 251.719,151.606 252.031 C 151.609 252.344,151.839 252.150,152.118 251.600 L 152.624 250.600 198.941 250.498 L 245.258 250.397 246.479 251.618 C 247.151 252.289,247.588 252.546,247.450 252.187 C 247.313 251.828,247.200 251.464,247.200 251.378 C 247.200 249.724,153.749 249.089,152.262 250.731 M151.388 277.800 C 151.388 291.660,151.439 297.272,151.500 290.271 C 151.561 283.270,151.561 271.930,151.500 265.071 C 151.438 258.212,151.388 263.940,151.388 277.800 M61.387 279.000 C 61.387 291.320,61.438 296.418,61.500 290.328 C 61.562 284.239,61.562 274.159,61.500 267.928 C 61.438 261.698,61.387 266.680,61.387 279.000 M247.786 279.200 C 247.786 290.970,247.837 295.785,247.900 289.900 C 247.962 284.015,247.962 274.385,247.900 268.500 C 247.837 262.615,247.786 267.430,247.786 279.200 M190.528 268.300 C 196.649 268.362,206.549 268.362,212.528 268.300 C 218.508 268.237,213.500 268.187,201.400 268.187 C 189.300 268.187,184.408 268.238,190.528 268.300 M228.695 268.835 C 229.066 269.311,229.218 273.493,229.300 285.435 L 229.409 301.400 229.505 285.349 C 229.593 270.471,229.549 269.258,228.900 268.749 C 228.281 268.264,228.257 268.274,228.695 268.835 M170.080 269.280 C 169.712 269.648,169.600 280.591,169.600 316.098 L 169.600 362.436 168.618 363.418 C 167.684 364.352,167.696 364.724,168.640 364.094 C 169.978 363.201,170.000 362.412,170.000 315.906 C 170.000 280.548,170.112 269.648,170.480 269.280 C 170.744 269.016,170.870 268.800,170.760 268.800 C 170.650 268.800,170.344 269.016,170.080 269.280 M79.387 321.600 C 79.387 334.030,79.438 339.115,79.500 332.900 C 79.562 326.685,79.562 316.515,79.500 310.300 C 79.438 304.085,79.387 309.170,79.387 321.600 M320.187 322.000 C 320.187 334.210,320.238 339.205,320.300 333.100 C 320.362 326.995,320.362 317.005,320.300 310.900 C 320.238 304.795,320.187 309.790,320.187 322.000 M61.786 322.400 C 61.786 333.950,61.837 338.675,61.900 332.900 C 61.962 327.125,61.962 317.675,61.900 311.900 C 61.837 306.125,61.786 310.850,61.786 322.400 M247.380 316.200 C 247.380 323.900,247.434 326.993,247.499 323.074 C 247.565 319.155,247.565 312.855,247.499 309.074 C 247.434 305.293,247.380 308.500,247.380 316.200 M151.309 305.600 C 151.309 306.590,151.387 306.995,151.482 306.500 C 151.578 306.005,151.578 305.195,151.482 304.700 C 151.387 304.205,151.309 304.610,151.309 305.600 M247.309 332.000 C 247.309 332.990,247.387 333.395,247.482 332.900 C 247.578 332.405,247.578 331.595,247.482 331.100 C 247.387 330.605,247.309 331.010,247.309 332.000 M247.342 339.000 C 247.341 340.980,247.408 341.840,247.492 340.912 C 247.576 339.984,247.577 338.364,247.495 337.312 C 247.412 336.260,247.343 337.020,247.342 339.000 M151.337 341.800 C 151.339 343.560,151.409 344.230,151.493 343.289 C 151.578 342.349,151.577 340.909,151.491 340.089 C 151.405 339.270,151.336 340.040,151.337 341.800 M229.373 352.600 C 229.373 357.880,229.430 359.985,229.499 357.277 C 229.568 354.569,229.568 350.249,229.499 347.677 C 229.429 345.105,229.372 347.320,229.373 352.600 M247.654 344.020 C 247.600 345.049,248.225 346.000,248.956 346.000 C 249.175 346.000,249.061 345.775,248.705 345.500 C 248.348 345.225,247.978 344.550,247.883 344.000 L 247.709 343.000 247.654 344.020 M61.287 352.600 C 61.197 362.465,61.568 364.444,63.494 364.375 C 64.073 364.354,64.048 364.288,63.356 364.008 C 61.948 363.439,61.808 362.554,61.586 352.800 L 61.372 343.400 61.287 352.600 M319.260 345.300 C 318.871 345.689,311.108 345.845,284.280 346.004 L 249.800 346.209 284.056 346.304 C 317.604 346.398,318.331 346.384,319.256 345.613 C 319.775 345.181,320.101 344.821,319.980 344.813 C 319.859 344.806,319.535 345.025,319.260 345.300 M98.500 346.300 C 107.905 346.360,123.295 346.360,132.700 346.300 C 142.105 346.240,134.410 346.191,115.600 346.191 C 96.790 346.191,89.095 346.240,98.500 346.300 M231.000 364.176 C 232.005 364.669,234.925 364.752,249.000 364.692 L 265.800 364.621 248.600 364.410 C 239.140 364.295,231.040 364.062,230.600 363.894 C 230.160 363.726,230.340 363.853,231.000 364.176 M103.672 364.300 C 109.541 364.362,119.261 364.362,125.272 364.300 C 131.282 364.238,126.480 364.187,114.600 364.186 C 102.720 364.186,97.802 364.237,103.672 364.300 M276.900 364.300 C 282.785 364.362,292.415 364.362,298.300 364.300 C 304.185 364.237,299.370 364.186,287.600 364.186 C 275.830 364.186,271.015 364.237,276.900 364.300 M71.300 364.699 C 75.205 364.765,81.595 364.765,85.500 364.699 C 89.405 364.634,86.210 364.580,78.400 364.580 C 70.590 364.580,67.395 364.634,71.300 364.699 M144.300 364.699 C 148.535 364.764,155.465 364.764,159.700 364.699 C 163.935 364.635,160.470 364.582,152.000 364.582 C 143.530 364.582,140.065 364.635,144.300 364.699 " stroke="none" fill="#8c8e94" fill-rule="evenodd"></path><path id="path4" d="M197.187 24.261 C 196.204 25.078,193.772 27.289,191.782 29.173 C 189.792 31.058,186.121 34.490,183.623 36.800 C 181.126 39.110,177.534 42.458,175.641 44.240 C 168.344 51.110,165.237 54.014,160.670 58.232 C 158.069 60.634,152.669 65.678,148.670 69.440 C 144.672 73.202,140.410 77.141,139.200 78.195 C 137.171 79.962,129.353 87.257,119.951 96.157 C 115.632 100.245,109.663 105.837,104.016 111.084 C 101.935 113.018,98.785 115.960,97.016 117.622 C 95.247 119.285,93.412 120.905,92.937 121.222 C 92.463 121.540,86.883 126.728,80.537 132.752 C 69.478 143.250,64.670 147.762,56.616 155.200 C 46.188 164.830,44.001 166.859,40.838 169.842 C 32.513 177.693,28.260 181.664,24.174 185.400 C 10.505 197.899,9.274 199.941,12.099 205.431 C 13.870 208.873,15.503 209.800,19.800 209.800 C 24.371 209.800,23.713 210.257,36.200 198.391 C 41.635 193.226,46.575 188.640,47.179 188.200 C 48.244 187.423,54.548 181.665,59.220 177.200 C 66.001 170.721,77.085 160.343,83.787 154.200 C 86.187 152.000,89.797 148.670,91.811 146.800 C 93.824 144.930,97.430 141.600,99.824 139.400 C 102.218 137.200,105.802 133.858,107.788 131.973 C 109.775 130.088,113.110 126.927,115.200 124.950 C 117.290 122.972,122.292 118.214,126.314 114.377 C 130.337 110.540,134.297 106.892,135.114 106.271 C 135.932 105.650,137.964 103.850,139.632 102.271 C 141.299 100.692,144.442 97.780,146.615 95.800 C 148.789 93.820,152.822 90.040,155.578 87.400 C 166.233 77.193,172.609 71.211,176.685 67.600 C 177.554 66.830,180.574 64.040,183.398 61.400 C 186.221 58.760,189.238 55.970,190.103 55.200 C 190.967 54.430,193.237 52.340,195.146 50.556 C 199.703 46.298,199.845 46.311,205.271 51.527 C 207.459 53.630,209.755 55.724,210.373 56.180 C 210.992 56.637,213.097 58.555,215.049 60.443 C 219.821 65.057,225.677 70.553,230.984 75.400 C 233.393 77.600,237.262 81.219,239.582 83.441 C 243.220 86.927,247.308 90.789,262.613 105.200 C 264.132 106.630,266.829 109.060,268.605 110.600 C 270.382 112.140,272.548 114.194,273.418 115.166 C 274.288 116.137,275.707 117.445,276.572 118.074 C 277.436 118.702,281.666 122.618,285.972 126.775 C 293.147 133.703,300.535 140.639,313.658 152.767 C 323.549 161.909,328.163 166.264,331.236 169.357 C 332.961 171.093,334.818 172.803,335.362 173.157 C 335.906 173.511,339.758 177.040,343.923 181.000 C 348.087 184.960,353.359 189.910,355.638 192.000 C 357.918 194.090,361.496 197.425,363.591 199.410 C 375.670 210.859,377.315 211.792,382.632 210.213 C 385.007 209.508,386.855 207.364,387.873 204.136 C 389.158 200.057,387.636 197.582,378.687 189.197 C 371.138 182.123,363.416 174.895,357.966 169.800 C 355.848 167.820,352.065 164.324,349.558 162.031 C 347.051 159.737,341.571 154.607,337.380 150.631 C 333.189 146.654,327.435 141.240,324.594 138.600 C 321.752 135.960,317.706 132.180,315.602 130.200 C 311.176 126.034,307.165 122.300,300.781 116.400 C 298.281 114.090,294.494 110.512,292.364 108.450 C 290.235 106.387,287.932 104.345,287.246 103.911 C 286.561 103.477,286.000 102.983,286.000 102.813 C 286.000 102.644,284.155 100.831,281.900 98.785 C 279.645 96.739,274.650 92.066,270.800 88.400 C 266.950 84.734,261.460 79.557,258.600 76.895 C 246.163 65.318,237.523 57.259,233.800 53.762 C 227.937 48.256,221.938 42.635,217.400 38.396 C 215.200 36.342,211.578 32.937,209.350 30.830 C 199.825 21.821,200.004 21.918,197.187 24.261 M202.667 25.744 C 203.707 26.655,206.034 28.840,207.840 30.600 C 209.646 32.360,213.865 36.320,217.216 39.400 C 220.566 42.480,224.224 45.955,225.343 47.122 C 226.462 48.290,227.923 49.582,228.589 49.994 C 229.255 50.406,231.600 52.551,233.800 54.761 C 236.000 56.970,237.939 58.783,238.110 58.789 C 238.280 58.795,239.908 60.285,241.728 62.100 C 245.676 66.038,252.431 72.461,254.626 74.364 C 255.492 75.115,257.741 77.185,259.625 78.964 C 261.510 80.744,264.886 83.910,267.128 86.000 C 269.370 88.090,272.711 91.240,274.553 93.000 C 279.556 97.783,286.364 104.104,288.400 105.858 C 289.390 106.710,291.488 108.666,293.062 110.204 C 294.636 111.742,296.495 113.450,297.193 114.000 C 297.891 114.550,298.673 115.235,298.931 115.523 C 300.347 117.104,303.052 119.725,305.822 122.200 C 307.546 123.740,310.946 126.906,313.378 129.236 C 315.810 131.566,318.970 134.536,320.399 135.836 C 321.828 137.136,323.905 139.100,325.014 140.200 C 326.123 141.300,328.103 143.125,329.415 144.256 C 330.727 145.388,333.179 147.638,334.863 149.256 C 336.548 150.875,339.849 154.000,342.199 156.200 C 344.549 158.400,347.400 161.096,348.536 162.191 C 349.671 163.287,351.500 164.967,352.600 165.926 C 353.700 166.884,356.050 169.048,357.821 170.734 C 359.593 172.420,363.355 175.960,366.180 178.600 C 369.006 181.240,372.343 184.390,373.597 185.600 C 374.850 186.810,377.790 189.570,380.131 191.733 C 386.048 197.200,386.977 198.622,386.971 202.200 C 386.963 207.248,384.491 209.692,379.440 209.645 C 375.653 209.609,375.005 209.103,357.365 192.404 C 355.624 190.756,353.480 188.808,352.600 188.076 C 351.720 187.344,347.784 183.652,343.853 179.872 C 339.923 176.093,336.308 172.730,335.821 172.400 C 335.335 172.070,333.395 170.270,331.511 168.400 C 329.627 166.530,327.084 164.190,325.860 163.200 C 324.636 162.210,323.528 161.094,323.397 160.720 C 323.266 160.347,322.817 159.933,322.400 159.800 C 321.983 159.667,321.530 159.208,321.394 158.780 C 321.257 158.351,320.984 158.000,320.787 158.000 C 320.589 158.000,319.908 157.505,319.273 156.900 C 315.755 153.549,310.757 148.864,306.368 144.804 C 303.636 142.276,299.975 138.856,298.234 137.204 C 296.492 135.552,294.782 133.973,294.434 133.695 C 293.721 133.127,291.376 130.918,275.200 115.572 C 273.550 114.007,271.120 111.777,269.800 110.617 C 268.480 109.457,266.320 107.451,265.000 106.159 C 263.680 104.868,261.880 103.210,261.000 102.475 C 260.120 101.740,257.958 99.757,256.196 98.069 C 243.401 85.814,236.700 79.461,234.841 77.822 C 233.653 76.775,231.437 74.722,229.917 73.259 C 228.396 71.797,226.972 70.536,226.752 70.459 C 226.532 70.381,224.846 68.851,223.007 67.059 C 221.167 65.266,217.803 62.063,215.531 59.940 C 213.259 57.816,209.510 54.276,207.200 52.073 C 199.515 44.743,199.657 44.757,193.567 50.793 C 190.510 53.825,184.211 59.724,179.825 63.666 C 178.518 64.840,177.019 66.247,176.492 66.793 C 175.966 67.339,175.120 68.059,174.611 68.393 C 174.103 68.727,171.803 70.800,169.502 73.000 C 161.471 80.676,150.602 90.891,149.595 91.709 C 148.997 92.194,137.219 103.151,131.000 109.007 C 122.503 117.009,114.339 124.642,107.051 131.400 C 104.678 133.600,101.449 136.660,99.874 138.200 C 98.300 139.740,96.309 141.592,95.449 142.316 C 93.162 144.241,86.679 150.228,75.191 161.021 C 73.096 162.990,70.756 165.187,69.991 165.905 C 69.226 166.623,68.308 167.523,67.952 167.905 C 67.595 168.287,65.371 170.400,63.010 172.600 C 60.648 174.800,58.465 176.838,58.158 177.129 C 57.851 177.419,57.600 177.797,57.600 177.967 C 57.600 178.138,57.244 178.440,56.810 178.639 C 56.375 178.837,54.101 180.800,51.756 183.000 C 49.411 185.200,47.201 187.168,46.846 187.373 C 46.491 187.577,44.828 189.107,43.151 190.773 C 41.474 192.438,38.324 195.443,36.151 197.451 C 31.325 201.910,27.772 205.191,26.274 206.572 C 22.125 210.397,15.828 210.042,13.432 205.850 C 10.173 200.149,10.905 198.869,24.782 186.000 C 35.614 175.955,37.605 174.093,41.200 170.644 C 43.290 168.639,46.873 165.289,49.161 163.199 C 51.450 161.110,54.780 158.015,56.561 156.323 C 58.343 154.630,60.308 152.852,60.929 152.371 C 61.550 151.890,63.365 150.214,64.962 148.648 C 67.855 145.811,74.074 139.995,78.557 135.935 C 79.854 134.761,81.114 133.565,81.357 133.278 C 81.601 132.991,82.430 132.181,83.200 131.478 C 83.970 130.776,86.490 128.384,88.800 126.162 C 91.110 123.941,93.387 121.867,93.860 121.552 C 94.591 121.066,105.901 110.440,108.604 107.700 C 109.092 107.205,109.616 106.800,109.768 106.800 C 110.127 106.800,115.200 101.552,115.200 101.180 C 115.200 101.025,115.708 100.687,116.328 100.430 C 116.948 100.173,118.533 98.846,119.850 97.481 C 121.166 96.117,123.667 93.740,125.408 92.200 C 127.148 90.660,129.486 88.500,130.604 87.400 C 131.722 86.300,134.508 83.690,136.794 81.600 C 139.081 79.510,142.402 76.435,144.176 74.767 C 148.611 70.594,155.887 63.787,161.027 59.000 C 163.390 56.800,166.870 53.523,168.762 51.717 C 174.442 46.293,176.390 44.494,181.115 40.299 C 183.599 38.095,185.849 35.999,186.115 35.642 C 186.382 35.284,187.230 34.478,188.000 33.849 C 189.438 32.676,196.645 26.056,198.105 24.567 C 199.216 23.435,200.372 23.733,202.667 25.744 M264.165 52.377 C 259.119 53.583,255.944 59.396,257.749 64.123 C 258.854 67.015,260.531 68.276,264.829 69.447 L 268.600 70.474 293.200 70.292 C 320.358 70.091,319.731 70.039,320.107 72.486 C 320.217 73.209,320.215 83.340,320.100 95.000 C 319.961 109.147,320.035 117.102,320.321 118.911 C 321.591 126.930,330.946 129.426,336.031 123.102 L 337.400 121.400 337.509 87.201 C 337.610 55.299,337.572 52.968,336.932 52.501 C 336.165 51.940,266.491 51.821,264.165 52.377 M316.934 52.665 L 336.800 52.931 336.800 86.835 L 336.800 120.739 335.868 121.869 C 335.356 122.491,334.832 123.287,334.704 123.638 C 334.577 123.989,333.642 124.508,332.626 124.793 C 331.610 125.077,330.683 125.465,330.566 125.655 C 329.929 126.685,323.979 124.865,323.229 123.411 C 322.999 122.965,322.404 122.092,321.906 121.470 L 321.000 120.341 320.945 96.177 C 320.915 82.887,320.778 71.565,320.640 71.018 C 320.137 69.014,320.371 69.030,293.400 69.144 C 261.068 69.281,259.799 69.067,258.414 63.245 C 257.595 59.799,259.629 54.400,261.747 54.400 C 261.961 54.400,262.477 54.092,262.893 53.716 C 264.368 52.381,277.114 52.133,316.934 52.665 M69.400 199.397 C 69.180 199.470,68.522 199.635,67.939 199.763 C 65.972 200.195,63.011 202.922,62.420 204.847 C 61.612 207.474,61.473 361.275,62.277 362.900 C 62.956 364.273,55.690 364.099,115.794 364.179 L 167.788 364.248 168.694 363.342 L 169.600 362.436 169.600 316.027 L 169.600 269.618 170.682 268.909 C 172.146 267.950,227.791 267.797,228.938 268.749 C 229.547 269.254,229.600 273.011,229.605 315.549 C 229.611 365.811,229.525 363.396,231.342 363.948 C 232.310 364.242,332.302 364.339,336.036 364.049 C 337.613 363.927,337.600 364.582,337.600 284.431 C 337.600 198.957,337.770 205.121,335.334 202.411 C 331.223 197.838,324.431 198.593,321.278 203.972 L 320.239 205.745 320.220 275.308 L 320.200 344.871 319.245 345.644 C 317.815 346.802,249.276 346.648,248.114 345.485 C 247.435 344.805,247.407 342.497,247.537 298.791 L 247.674 252.812 246.468 251.606 L 245.262 250.400 199.080 250.400 C 156.613 250.400,152.854 250.453,152.349 251.061 C 151.893 251.610,151.765 259.674,151.594 298.561 C 151.481 324.323,151.346 345.423,151.294 345.451 C 149.665 346.341,146.871 346.407,114.914 346.307 C 82.807 346.206,80.787 346.159,80.114 345.486 C 79.434 344.806,79.398 341.445,79.367 275.664 L 79.334 206.556 78.370 204.626 C 76.568 201.019,72.190 198.466,69.400 199.397 M74.976 201.809 C 75.872 202.492,76.918 203.835,77.459 204.995 L 78.392 207.000 78.396 275.440 C 78.400 349.716,78.275 345.915,80.751 346.888 C 82.744 347.671,148.666 347.668,150.507 346.885 C 152.426 346.069,152.400 346.747,152.406 298.274 C 152.409 272.933,152.563 251.962,152.747 251.672 C 153.399 250.644,244.352 251.090,245.500 252.127 L 246.400 252.939 246.400 298.781 C 246.400 348.354,246.287 345.669,248.421 346.811 C 251.082 348.235,318.188 347.688,319.885 346.228 L 320.908 345.348 320.964 275.525 L 321.021 205.701 322.156 204.063 C 325.511 199.222,332.476 199.264,335.789 204.146 L 336.796 205.630 336.802 283.891 C 336.806 338.483,336.680 362.280,336.384 362.576 C 335.441 363.519,232.248 363.337,231.392 362.391 C 230.681 361.605,230.649 359.725,230.586 315.488 L 230.522 269.404 229.425 268.291 L 228.328 267.178 200.095 267.216 C 172.922 267.253,171.804 267.284,170.331 268.035 C 168.472 268.983,168.740 261.470,168.635 315.671 C 168.563 353.206,168.447 362.062,168.020 362.575 C 167.241 363.515,63.787 363.342,63.192 362.400 C 62.516 361.332,62.681 205.790,63.359 204.479 C 65.399 200.535,71.474 199.138,74.976 201.809 " stroke="none" fill="#84848c" fill-rule="evenodd"></path></g></svg>