<?xml version="1.0" encoding="UTF-8"?>
<!-- Created with Inkscape (http://www.inkscape.org/) -->
<svg width="61.1mm" height="55.329mm" version="1.1" viewBox="0 0 61.099808 55.32946" xmlns="http://www.w3.org/2000/svg" xmlns:cc="http://creativecommons.org/ns#" xmlns:dc="http://purl.org/dc/elements/1.1/" xmlns:rdf="http://www.w3.org/1999/02/22-rdf-syntax-ns#">
 <metadata>
  <rdf:RDF>
   <cc:Work rdf:about="">
    <dc:format>image/svg+xml</dc:format>
    <dc:type rdf:resource="http://purl.org/dc/dcmitype/StillImage"/>
    <dc:title/>
   </cc:Work>
  </rdf:RDF>
 </metadata>
 <g transform="translate(-720.01 1297.3)">
  <path d="m728.34-1255.1 0.0925-13.141h2.1167l0.17639 11.818 0.17639 11.818 5.909 0.097 5.909 0.097v-15.892h15.509l0.095 7.8493 0.0949 7.8493 5.909 0.097 5.909 0.097v-11.445c0-6.2947 0.0964-11.696 0.21414-12.003 0.28238-0.7359 2.1116-0.7359 2.394 0 0.11778 0.3069 0.21414 6.26 0.21414 13.229v12.671h-17.286v-15.522h-10.231v15.522h-17.295zm-8.2292-12.67c-0.45482-0.8499 0.24053-1.5898 10.262-10.92 2.6194-2.4387 8.1518-7.594 12.294-11.456 4.1424-3.8623 7.6744-7.0752 7.8488-7.1398 0.17441-0.064 2.8994 2.3167 6.0556 5.2917 5.7374 5.4081 14.349 13.477 16.092 15.077 7.7479 7.115 8.5411 7.9454 8.4378 8.8327-0.0831 0.7135-0.29991 0.9018-1.0386 0.9018-0.89121 0-4.4115-3.0953-17.058-14.999-10.626-10.001-12.219-11.465-12.399-11.396-0.29046 0.1119-2.9186 2.4691-7.1435 6.4072-2.2515 2.0987-8.0373 7.494-12.857 11.99-4.9679 4.6334-9.0499 8.1737-9.4244 8.1737-0.36335 0-0.84468-0.3438-1.0696-0.7641zm50.549-13.418c-0.28143-0.2814-0.42334-1.8188-0.42334-4.5861v-4.1628h-4.6919c-4.8332 0-5.5386-0.1872-5.5386-1.4693 0-1.1229 1.2259-1.3529 7.2088-1.3529h5.844v5.4392c0 2.9915-0.0964 5.6903-0.21414 5.9972-0.25236 0.6577-1.5799 0.7395-2.1848 0.1347z" stroke-width=".35278"/>
 </g>
</svg>
